Coordinates
version=1
nRows=19
nColumns=24
inDegrees=yes

Units are S.I. units (second, meters, Newtons, ...)
Angles are in degrees.

endheader
time	pelvis_tilt	pelvis_list	pelvis_rotation	pelvis_tx	pelvis_ty	pelvis_tz	hip_flexion_r	hip_adduction_r	hip_rotation_r	knee_angle_r	ankle_angle_r	subtalar_angle_r	mtp_angle_r	hip_flexion_l	hip_adduction_l	hip_rotation_l	knee_angle_l	ankle_angle_l	subtalar_angle_l	mtp_angle_l	lumbar_extension	lumbar_bending	lumbar_rotation
      3.90500000	     -8.46541223	     -7.15834616	      8.79431613	     -0.15711762	     -0.04153314	      0.63739811	     30.81517608	      4.68935307	     -1.44865373	    -36.46344686	      4.90842241	     -4.12940495	     15.57276439	     14.82169367	     -6.28018160	      3.44424615	    -63.63926624	    -25.13163640	     -0.31099197	     23.18518066	      9.52990307	     14.17722477	    -10.01493395
      3.91000000	     -8.41283787	     -7.21403367	      8.56846659	     -0.14959627	     -0.04016039	      0.63764414	     30.02437392	      4.98477256	     -1.22691256	    -36.00685254	      5.22156681	     -4.15049054	     15.19962216	     15.89716093	     -6.31336544	      3.14736843	    -64.90098526	    -23.97282133	     -0.08112585	     23.47841697	      9.39237274	     14.35134855	     -9.50825925
      3.91500000	     -8.36152376	     -7.27486424	      8.35051973	     -0.14204478	     -0.03873418	      0.63784279	     29.19678672	      5.27532973	     -0.98303914	    -35.48641332	      5.53530781	     -4.13231063	     14.86659713	     16.96566504	     -6.34814964	      2.88488116	    -66.06663437	    -23.01723205	      0.08078178	     23.69601154	      9.27378005	     14.52996434	     -9.03643953
      3.92000000	     -8.31351992	     -7.34955077	      8.14760985	     -0.13450077	     -0.03725996	      0.63800140	     28.34303249	      5.56557115	     -0.74766422	    -34.90782768	      5.81286796	     -4.13712872	     14.48736118	     18.03626846	     -6.38789456	      2.67479062	    -67.14255178	    -22.23287244	      0.19206181	     23.81839158	      9.17129543	     14.71609774	     -8.58208340
      3.92500000	     -8.25196782	     -7.39898059	      7.99456702	     -0.12697851	     -0.03572616	      0.63799977	     27.44632542	      5.77189268	     -0.60299964	    -34.27770436	      6.08309207	     -4.01794918	     14.39019459	     19.08465459	     -6.37395412	      2.50880162	    -68.10467583	    -21.74758180	      0.03789596	     23.98654368	      9.06983115	     14.87144881	     -8.18650721
      3.93000000	     -8.19875475	     -7.50051212	      7.81413439	     -0.11946075	     -0.03426909	      0.63815059	     26.55500940	      6.08075002	     -0.36064737	    -33.65655941	      6.45127420	     -3.98861409	     13.30679344	     20.15190253	     -6.43131703	      2.38007228	    -69.04742044	    -21.06906038	      0.12226674	     23.63788400	      8.97609463	     15.07111523	     -7.80418067
      3.93500000	     -8.15846012	     -7.55007919	      7.65272993	     -0.11194521	     -0.03274655	      0.63816374	     25.64220003	      6.28336564	     -0.17008199	    -32.94677157	      6.63829010	     -3.93655651	     13.24363755	     21.19708102	     -6.40352853	      2.27724646	    -69.82753930	    -20.77609108	     -0.07895239	     23.77263440	      8.90161002	     15.21704625	     -7.43471667
      3.94000000	     -8.11215214	     -7.64381402	      7.45966584	     -0.10443681	     -0.03128168	      0.63833659	     24.72288631	      6.57171541	      0.06428044	    -32.21631336	      6.72335083	     -4.14953261	     12.90851338	     22.22912750	     -6.44966605	      2.17854894	    -70.54343546	    -20.39966179	     -0.22409274	     23.82365431	      8.81279551	     15.40052240	     -7.02529294
      3.94500000	     -8.05885996	     -7.70255004	      7.29898655	     -0.09693158	     -0.02982776	      0.63839719	     23.78133203	      6.78856133	      0.27609171	    -31.47603158	      6.86932858	     -4.19234470	     12.60694511	     23.23349626	     -6.43138555	      2.11757157	    -71.15857674	    -20.06099096	     -0.44065685	     23.83774170	      8.72131695	     15.54525714	     -6.67153024
      3.95000000	     -8.02656663	     -7.70651882	      7.16595144	     -0.08942686	     -0.02843490	      0.63843942	     22.85041089	      6.92837089	      0.51255626	    -30.73029525	      7.04433760	     -4.16402707	     12.48389154	     24.23549423	     -6.33280762	      2.08754061	    -71.67023995	    -19.74919048	     -0.67678885	     23.91286015	      8.65449823	     15.61259903	     -6.40872493
      3.95500000	     -7.94384672	     -7.72936117	      6.96309915	     -0.08190692	     -0.02703868	      0.63869080	     21.86385499	      7.15482789	      0.84096787	    -29.97719132	      7.13710439	     -4.41961232	     11.90087179	     25.15127795	     -6.31280180	      1.99459091	    -72.10010124	    -19.28886818	     -0.85689155	     23.77270274	      8.50440496	     15.70781319	     -6.01103839
      3.96000000	     -7.92583823	     -7.70694946	      6.82775533	     -0.07444435	     -0.02579311	      0.63873216	     20.95991249	      7.24396553	      1.03940248	    -29.24778764	      7.29163277	     -4.35484506	     11.79229866	     26.12586537	     -6.17808736	      1.97792231	    -72.43250806	    -18.89599233	     -1.12214054	     23.85237957	      8.43497408	     15.74305870	     -5.72587796
      3.96500000	     -7.84299752	     -7.68438598	      6.59303841	     -0.06696738	     -0.02452860	      0.63903412	     19.98257502	      7.41583886	      1.39668238	    -28.51254146	      7.34525020	     -4.59742611	     11.31863178	     26.98543259	     -6.12693445	      1.86061288	    -72.67455451	    -18.39401226	     -1.33195725	     23.75314679	      8.24786062	     15.78795865	     -5.26843887
      3.97000000	     -7.77812789	     -7.59986974	      6.38343111	     -0.05948188	     -0.02335021	      0.63931866	     19.02198269	      7.50009055	      1.77025653	    -27.79828280	      7.48250518	     -4.71896501	     10.85680130	     27.83279438	     -5.99684252	      1.75823051	    -72.81978423	    -17.86933607	     -1.51105717	     23.60952377	      8.08213620	     15.74955310	     -4.89334277
      3.97500000	     -7.72906541	     -7.48352974	      6.17693825	     -0.05202020	     -0.02226208	      0.63962216	     18.08825412	      7.53974469	      2.13550994	    -27.10558325	      7.61381827	     -4.85323201	     10.39165341	     28.67155618	     -5.83373564	      1.65359430	    -72.87479244	    -17.34618308	     -1.71308763	     23.42957040	      7.92041056	     15.66644031	     -4.51716779
      3.98000000	     -7.68715229	     -7.34763527	      5.95995276	     -0.04459690	     -0.02126419	      0.63997019	     17.17398942	      7.55326976	      2.51009720	    -26.43165918	      7.74011100	     -4.97804856	      9.98261085	     29.49428192	     -5.66443271	      1.53843286	    -72.84307593	    -16.82787458	     -1.91042180	     23.24141343	      7.75201631	     15.55637811	     -4.13284034
      3.98500000	     -7.64863077	     -7.18916724	      5.73527711	     -0.03718486	     -0.02034812	      0.64035767	     16.27052042	      7.54042506	      2.90322449	    -25.77266390	      7.85661667	     -5.12023138	      9.60559926	     30.29256811	     -5.48734839	      1.40724889	    -72.72337412	    -16.32282058	     -2.11679276	     23.01244999	      7.57471375	     15.41420817	     -3.74237229
      3.99000000	     -7.56753167	     -7.05360381	      5.51800507	     -0.02982240	     -0.01951026	      0.64073122	     15.33323120	      7.54343623	      3.29127236	    -25.13556698	      8.07055410	     -5.13202231	      8.98898597	     31.04199915	     -5.34459852	      1.27998542	    -72.56011933	    -15.71136414	     -2.31726009	     22.31800993	      7.34086876	     15.29700916	     -3.35164897
      3.99500000	     -7.57463579	     -6.85375794	      5.24294139	     -0.02242616	     -0.01879287	      0.64125645	     14.50093871	      7.48193204	      3.71215374	    -24.51430258	      8.15482243	     -5.30341366	      8.74398974	     31.82315070	     -5.17782114	      1.08342618	    -72.25942660	    -15.23411399	     -2.54476678	     22.05840735	      7.18887916	     15.09065196	     -2.94997743
